<?xml version="1.0" standalone="no"?>
<!DOCTYPE svg PUBLIC "-//W3C//DTD SVG 20010904//EN"
 "http://www.w3.org/TR/2001/REC-SVG-20010904/DTD/svg10.dtd">
<svg version="1.0" xmlns="http://www.w3.org/2000/svg"
 width="200.000000pt" height="200.000000pt" viewBox="0 0 200.000000 200.000000"
 preserveAspectRatio="xMidYMid meet">

<g transform="translate(0.000000,200.000000) scale(0.100000,-0.100000)"
fill="#000000" stroke="none">
<path d="M0 1000 l0 -1000 1000 0 1000 0 0 1000 0 1000 -1000 0 -1000 0 0
-1000z m1038 714 c12 -8 74 -102 137 -209 l115 -194 58 -16 c96 -27 138 -46
176 -77 110 -91 -37 -196 -324 -230 -21 -3 -24 -8 -25 -47 -1 -47 -29 -81 -67
-81 -31 0 -68 45 -68 82 l0 34 -55 0 -55 0 0 -36 c0 -23 -8 -44 -20 -58 -45
-48 -110 -10 -110 65 0 42 -1 43 -32 43 -55 1 -204 37 -262 65 -88 42 -116 92
-80 144 20 28 112 73 197 96 l62 17 115 195 c63 107 124 201 135 209 26 19 75
18 103 -2z m-403 -718 l70 -12 6 -50 c13 -106 70 -186 164 -230 102 -49 243
-22 311 59 36 43 71 121 79 178 l7 46 56 7 c31 4 66 9 79 12 21 6 23 3 23 -37
0 -24 5 -61 11 -83 6 -21 8 -48 5 -60 -7 -27 -82 -107 -125 -132 -17 -10 -31
-21 -31 -25 0 -3 23 -9 50 -12 28 -3 73 -18 100 -33 48 -26 150 -123 150 -142
0 -12 -135 -74 -220 -101 -116 -37 -202 -52 -340 -58 -159 -6 -284 11 -425 58
-91 31 -211 85 -221 100 -3 5 24 37 59 72 67 67 144 107 207 107 35 0 39 14 9
30 -34 19 -97 79 -119 115 -19 31 -20 35 -4 95 9 34 13 73 10 86 -7 28 -9 27
89 10z"/>
<path d="M701 1176 c50 -53 251 -88 389 -67 68 10 209 66 197 78 -3 2 -31 -4
-63 -14 -48 -15 -93 -18 -239 -18 -166 0 -204 5 -283 32 -16 5 -16 4 -1 -11z"/>
<path d="M952 497 l-32 -33 35 -34 35 -34 32 31 31 32 -29 35 c-16 19 -31 35
-35 35 -3 1 -19 -14 -37 -32z"/>
</g>
</svg>
